<?xml version="1.0" encoding="utf-8"?>
<!-- Generator: Adobe Illustrator 22.0.1, SVG Export Plug-In . SVG Version: 6.00 Build 0)  -->
<svg version="1.2" baseProfile="tiny" id="poloblue"
	 xmlns="http://www.w3.org/2000/svg" xmlns:xlink="http://www.w3.org/1999/xlink" x="0px" y="0px" viewBox="0 0 544 134.7"
	 xml:space="preserve">
<g>
	<path fill="#FFFFFF" d="M9.4,32.7l1.6,6.6h0.3c5.3-3.8,14.1-8.8,25.3-8.8C58,30.4,67,47.8,67,68.8s-9,38.4-30.3,38.4
		c-11.2,0-17.7-3.6-22.9-7.3h-0.3v34.8H0v-102H9.4z M13.5,88.3c4.6,4.2,12.4,7,19.6,7c15.3,0,20.1-12,20.1-26.5
		c0-14.5-4.8-26.5-20.1-26.5c-7.2,0-15,2.8-19.6,7V88.3z"/>
	<path fill="#FFFFFF" d="M113.6,107.2c-25.3,0-35.4-17.4-35.4-38.4s10-38.4,35.4-38.4c25.6,0,36,17.4,36,38.4
		S139.2,107.2,113.6,107.2z M113.6,95.4c16.2,0,22.2-11.5,22.2-26.5c0-15-6-26.5-22.2-26.5c-16,0-21.6,11.5-21.6,26.5
		C92,83.8,97.5,95.4,113.6,95.4z"/>
	<path fill="#FFFFFF" d="M188.8,105.6c-2.3,0.6-5.4,1.2-8.8,1.2c-10.8,0-15.3-6.3-15.3-16.6V0h13.5v91c0,2.5,0.4,3.9,4.2,3.9h6.4
		V105.6z"/>
	<path fill="#FFFFFF" d="M232.1,107.2c-25.3,0-35.4-17.4-35.4-38.4s10-38.4,35.4-38.4c25.6,0,36,17.4,36,38.4
		S257.7,107.2,232.1,107.2z M232.1,95.4c16.2,0,22.2-11.5,22.2-26.5c0-15-6-26.5-22.2-26.5c-16,0-21.6,11.5-21.6,26.5
		C210.5,83.8,216,95.4,232.1,95.4z"/>
	<path fill="#0099DA" d="M296.5,0v37.8h0.3c5.3-3.8,11.5-7.3,22.8-7.3c21.1,0,30.4,17.4,30.4,38.4s-9.3,38.4-30.4,38.4
		c-11.1,0-19.6-5.1-25-8.8h-0.3l-1.6,6.6H283V0H296.5z M296.5,88.3c4.8,4.2,12.3,7,19.5,7c15.1,0,20.2-12,20.2-26.5
		c0-14.5-5.1-26.5-20.2-26.5c-7.2,0-14.7,2.8-19.5,7V88.3z"/>
	<path fill="#0099DA" d="M389.5,105.6c-2.3,0.6-5.4,1.2-8.8,1.2c-10.8,0-15.3-6.3-15.3-16.6V0h13.5v91c0,2.5,0.5,3.9,4.2,3.9h6.4
		V105.6z"/>
	<path fill="#0099DA" d="M414.2,32.7v44.2c0,12.4,4.4,18.4,15.6,18.4c7.5,0,15.6-4.2,19.8-7V32.7h13.5V105h-9.6l-1.7-6.6h-0.3
		c-4.3,3.1-14.7,8.8-25,8.8c-16.2,0-25.8-9.4-25.8-27.6V32.7H414.2z"/>
	<path fill="#0099DA" d="M491.3,73.2c0,13.2,9.1,22.5,22.9,22.5c10,0,16.3-3,21.6-6.4l5.3,10.2c-6.4,4.2-15.4,7.8-28,7.8
		c-24.7,0-35.4-17.8-35.4-38.7c0-19.6,11.2-38.1,34-38.1c22.8,0,32.2,15,32.2,31.2c0,3.8-0.4,9-0.9,11.5H491.3z M530.8,62.4
		c0.2-1.1,0.2-2.1,0.2-3.1c0-10-6.8-17.2-19.2-17.2c-12.1,0-19.6,8.4-20.4,20.4H530.8z"/>
</g>
</svg>
