<?xml version="1.0" encoding="utf-8"?>
<!-- Generator: Adobe Illustrator 22.0.1, SVG Export Plug-In . SVG Version: 6.00 Build 0)  -->
<svg version="1.1" id="Warstwa_1" xmlns="http://www.w3.org/2000/svg" xmlns:xlink="http://www.w3.org/1999/xlink" x="0px" y="0px"
	 viewBox="0 0 266.7 48.5" enable-background="new 0 0 266.7 48.5" xml:space="preserve">
<g>
	<path fill="#FFFFFF" d="M11.8,36.8c-1.8,0-3.5-0.3-5.1-0.9c-1.6-0.6-2.9-1.3-3.8-2.3c-0.4-0.4-0.5-0.9-0.5-1.4
		c0.1-0.5,0.3-0.9,0.8-1.3c0.5-0.4,1-0.5,1.5-0.5c0.5,0.1,0.9,0.3,1.2,0.7c0.5,0.6,1.3,1.1,2.4,1.6c1,0.4,2.2,0.7,3.5,0.7
		c1.7,0,3-0.3,3.9-0.9c0.9-0.6,1.3-1.3,1.3-2.2c0-0.9-0.4-1.6-1.3-2.2c-0.8-0.6-2.3-1.1-4.5-1.5c-2.8-0.5-4.8-1.3-6-2.4
		c-1.3-1.1-1.9-2.4-1.9-4c0-1.4,0.4-2.6,1.2-3.5c0.8-0.9,1.8-1.6,3.1-2.1c1.3-0.5,2.6-0.7,4-0.7c1.8,0,3.4,0.3,4.8,0.9
		c1.4,0.6,2.5,1.4,3.3,2.4c0.3,0.4,0.5,0.8,0.5,1.3c0,0.4-0.3,0.8-0.7,1.1C19,19.9,18.5,20,18,19.9c-0.5-0.1-1-0.3-1.4-0.7
		c-0.7-0.7-1.4-1.2-2.3-1.5s-1.8-0.4-2.9-0.4c-1.3,0-2.4,0.2-3.2,0.7c-0.8,0.5-1.3,1.1-1.3,2c0,0.5,0.1,1,0.4,1.4s0.8,0.8,1.6,1.1
		c0.8,0.3,1.9,0.6,3.4,0.9c2.1,0.4,3.7,0.9,4.9,1.5c1.2,0.6,2,1.4,2.5,2.2c0.5,0.8,0.8,1.8,0.8,2.9c0,1.3-0.3,2.4-1,3.4
		c-0.7,1-1.7,1.8-3,2.4C15.2,36.5,13.6,36.8,11.8,36.8z"/>
	<path fill="#FFFFFF" d="M27.9,46.2c-0.6,0-1-0.2-1.4-0.5c-0.4-0.4-0.5-0.8-0.5-1.4V25.3c0-2.2,0.5-4.1,1.5-5.8c1-1.7,2.3-3.1,4-4.1
		c1.7-1,3.6-1.5,5.7-1.5c2.2,0,4.1,0.5,5.9,1.5c1.7,1,3.1,2.4,4.1,4.1c1,1.7,1.5,3.7,1.5,5.9c0,2.2-0.5,4.1-1.4,5.8
		c-0.9,1.7-2.2,3.1-3.8,4.1c-1.6,1-3.4,1.5-5.5,1.5c-1.7,0-3.2-0.3-4.6-1s-2.6-1.7-3.5-2.9v11.4c0,0.6-0.2,1-0.5,1.4
		C28.9,46,28.5,46.2,27.9,46.2z M37.3,33.4c1.5,0,2.8-0.3,3.9-1s2.1-1.7,2.7-2.9c0.7-1.2,1-2.6,1-4.1c0-1.5-0.3-2.9-1-4.1
		c-0.7-1.2-1.6-2.2-2.7-2.9s-2.5-1-3.9-1c-1.5,0-2.8,0.3-3.9,1c-1.2,0.7-2.1,1.7-2.7,2.9c-0.7,1.2-1,2.6-1,4.1c0,1.5,0.3,2.9,1,4.1
		c0.7,1.2,1.6,2.2,2.7,2.9C34.6,33,35.9,33.4,37.3,33.4z"/>
	<path fill="#FFFFFF" d="M65.1,36.8c-2.2,0-4.1-0.5-5.9-1.5c-1.7-1-3.1-2.3-4-4c-1-1.7-1.5-3.7-1.5-5.9c0-2.2,0.5-4.2,1.5-5.9
		c1-1.7,2.3-3.1,4-4c1.7-1,3.7-1.5,5.9-1.5c2.2,0,4.1,0.5,5.8,1.5c1.7,1,3,2.3,4,4c1,1.7,1.5,3.7,1.5,5.9c0,2.2-0.5,4.2-1.5,5.9
		s-2.3,3.1-4,4C69.3,36.3,67.3,36.8,65.1,36.8z M65.1,33.4c1.5,0,2.8-0.3,3.9-1c1.2-0.7,2.1-1.6,2.7-2.8s1-2.6,1-4.1
		c0-1.6-0.3-2.9-1-4.2c-0.7-1.2-1.6-2.2-2.7-2.8c-1.2-0.7-2.5-1-3.9-1s-2.8,0.3-3.9,1c-1.2,0.7-2.1,1.6-2.7,2.8
		c-0.7,1.2-1,2.6-1,4.2c0,1.6,0.3,2.9,1,4.1s1.6,2.1,2.7,2.8C62.3,33,63.6,33.4,65.1,33.4z"/>
	<path fill="#FFFFFF" d="M84.5,36.6c-0.5,0-1-0.2-1.3-0.5c-0.3-0.3-0.5-0.8-0.5-1.3V6.4c0-0.5,0.2-1,0.5-1.3
		c0.3-0.3,0.8-0.5,1.3-0.5c0.6,0,1,0.2,1.4,0.5c0.3,0.3,0.5,0.8,0.5,1.3v28.4c0,0.5-0.2,1-0.5,1.3C85.6,36.4,85.1,36.6,84.5,36.6z
		 M86.2,28.6L83.8,26L97,14.3c0.4-0.4,0.8-0.5,1.3-0.5c0.5,0,0.8,0.2,1.2,0.6c0.4,0.4,0.5,0.8,0.5,1.3c0,0.5-0.2,0.9-0.6,1.2
		L86.2,28.6z M99.4,36.4c-0.4,0.3-0.9,0.5-1.4,0.4s-0.9-0.3-1.2-0.7l-8.6-10.6l2.6-2.5l8.8,10.8c0.3,0.4,0.5,0.8,0.4,1.3
		C100.1,35.6,99.8,36,99.4,36.4z"/>
	<path fill="#FFFFFF" d="M114.3,36.8c-2.2,0-4.1-0.5-5.9-1.5c-1.7-1-3.1-2.3-4-4c-1-1.7-1.5-3.7-1.5-5.9c0-2.2,0.5-4.2,1.5-5.9
		c1-1.7,2.3-3.1,4-4c1.7-1,3.7-1.5,5.9-1.5c2.2,0,4.1,0.5,5.8,1.5c1.7,1,3,2.3,4,4c1,1.7,1.5,3.7,1.5,5.9c0,2.2-0.5,4.2-1.5,5.9
		s-2.3,3.1-4,4C118.4,36.3,116.5,36.8,114.3,36.8z M114.3,33.4c1.5,0,2.8-0.3,3.9-1c1.2-0.7,2.1-1.6,2.7-2.8s1-2.6,1-4.1
		c0-1.6-0.3-2.9-1-4.2c-0.7-1.2-1.6-2.2-2.7-2.8c-1.2-0.7-2.5-1-3.9-1s-2.8,0.3-3.9,1c-1.2,0.7-2.1,1.6-2.7,2.8
		c-0.7,1.2-1,2.6-1,4.2c0,1.6,0.3,2.9,1,4.1s1.6,2.1,2.7,2.8C111.5,33,112.8,33.4,114.3,33.4z"/>
	<path fill="#0D87CD" d="M132.9,37.3c-0.7,0-1.3-0.3-1.9-0.8c-0.5-0.5-0.8-1.2-0.8-1.9c0-0.8,0.3-1.4,0.8-2c0.5-0.5,1.2-0.8,1.9-0.8
		c0.8,0,1.4,0.3,1.9,0.8c0.5,0.5,0.8,1.2,0.8,2c0,0.7-0.3,1.3-0.8,1.9C134.3,37,133.6,37.3,132.9,37.3z"/>
	<path fill="#FFFFFF" d="M149.4,36.8c-1.8,0-3.5-0.3-5.1-0.9c-1.6-0.6-2.9-1.3-3.8-2.3c-0.4-0.4-0.5-0.9-0.5-1.4
		c0.1-0.5,0.3-0.9,0.8-1.3c0.5-0.4,1-0.5,1.5-0.5c0.5,0.1,0.9,0.3,1.2,0.7c0.5,0.6,1.3,1.1,2.4,1.6c1,0.4,2.2,0.7,3.5,0.7
		c1.7,0,3-0.3,3.9-0.9c0.9-0.6,1.3-1.3,1.3-2.2c0-0.9-0.4-1.6-1.3-2.2c-0.8-0.6-2.3-1.1-4.5-1.5c-2.8-0.5-4.8-1.3-6-2.4
		c-1.3-1.1-1.9-2.4-1.9-4c0-1.4,0.4-2.6,1.2-3.5c0.8-0.9,1.8-1.6,3.1-2.1c1.3-0.5,2.6-0.7,4-0.7c1.8,0,3.4,0.3,4.8,0.9
		c1.4,0.6,2.5,1.4,3.3,2.4c0.3,0.4,0.5,0.8,0.5,1.3c0,0.4-0.3,0.8-0.7,1.1c-0.4,0.3-0.8,0.4-1.4,0.3c-0.5-0.1-1-0.3-1.4-0.7
		c-0.7-0.7-1.4-1.2-2.3-1.5s-1.8-0.4-2.9-0.4c-1.3,0-2.4,0.2-3.2,0.7c-0.8,0.5-1.3,1.1-1.3,2c0,0.5,0.1,1,0.4,1.4s0.8,0.8,1.6,1.1
		c0.8,0.3,1.9,0.6,3.4,0.9c2.1,0.4,3.7,0.9,4.9,1.5c1.2,0.6,2,1.4,2.5,2.2c0.5,0.8,0.8,1.8,0.8,2.9c0,1.3-0.3,2.4-1,3.4
		c-0.7,1-1.7,1.8-3,2.4C152.9,36.5,151.3,36.8,149.4,36.8z"/>
	<path fill="#FFFFFF" d="M165.5,46.2c-0.6,0-1-0.2-1.4-0.5c-0.4-0.4-0.5-0.8-0.5-1.4V25.3c0-2.2,0.5-4.1,1.5-5.8
		c1-1.7,2.3-3.1,4-4.1c1.7-1,3.6-1.5,5.7-1.5c2.2,0,4.1,0.5,5.9,1.5c1.7,1,3.1,2.4,4.1,4.1c1,1.7,1.5,3.7,1.5,5.9
		c0,2.2-0.5,4.1-1.4,5.8c-0.9,1.7-2.2,3.1-3.8,4.1c-1.6,1-3.4,1.5-5.5,1.5c-1.7,0-3.2-0.3-4.6-1s-2.6-1.7-3.5-2.9v11.4
		c0,0.6-0.2,1-0.5,1.4C166.6,46,166.1,46.2,165.5,46.2z M175,33.4c1.5,0,2.8-0.3,3.9-1s2.1-1.7,2.7-2.9c0.7-1.2,1-2.6,1-4.1
		c0-1.5-0.3-2.9-1-4.1c-0.7-1.2-1.6-2.2-2.7-2.9s-2.5-1-3.9-1c-1.5,0-2.8,0.3-3.9,1c-1.2,0.7-2.1,1.7-2.7,2.9c-0.7,1.2-1,2.6-1,4.1
		c0,1.5,0.3,2.9,1,4.1c0.7,1.2,1.6,2.2,2.7,2.9C172.2,33,173.5,33.4,175,33.4z"/>
	<path fill="#FFFFFF" d="M202.1,36.8c-2,0-3.8-0.5-5.5-1.5c-1.6-1-2.9-2.3-3.8-4.1c-0.9-1.7-1.4-3.7-1.4-5.8c0-2.2,0.5-4.1,1.5-5.9
		c1-1.7,2.4-3.1,4.1-4.1c1.7-1,3.6-1.5,5.8-1.5c2.2,0,4.1,0.5,5.8,1.5c1.7,1,3,2.4,4,4.1c1,1.7,1.5,3.7,1.5,5.8l-1.5,0.3
		c0,2.1-0.5,4-1.4,5.6c-0.9,1.7-2.2,3-3.7,4C205.9,36.3,204.1,36.8,202.1,36.8z M202.7,33.4c1.5,0,2.8-0.3,3.9-1
		c1.1-0.7,2-1.7,2.7-2.9c0.7-1.2,1-2.6,1-4.1c0-1.5-0.3-2.9-1-4.1c-0.7-1.2-1.6-2.2-2.7-2.9c-1.1-0.7-2.4-1-3.9-1
		c-1.4,0-2.7,0.3-3.9,1c-1.2,0.7-2.1,1.7-2.8,2.9c-0.7,1.2-1,2.6-1,4.1c0,1.5,0.3,2.9,1,4.1c0.7,1.2,1.6,2.2,2.8,2.9
		C200,33,201.3,33.4,202.7,33.4z M212.2,36.6c-0.5,0-1-0.2-1.4-0.6c-0.4-0.4-0.6-0.8-0.6-1.4v-6.5l0.8-4l3.1,1.2v9.3
		c0,0.5-0.2,1-0.5,1.4C213.2,36.5,212.7,36.6,212.2,36.6z"/>
	<path fill="#FFFFFF" d="M230.5,36.8c-2.2,0-4.1-0.5-5.8-1.5c-1.7-1-3-2.4-4-4.1c-1-1.7-1.5-3.7-1.5-5.8c0-2.2,0.5-4.2,1.4-5.9
		c0.9-1.7,2.2-3.1,3.9-4c1.7-1,3.6-1.5,5.7-1.5c1.6,0,3.1,0.3,4.5,0.9c1.4,0.6,2.6,1.6,3.6,2.8c0.4,0.4,0.5,0.8,0.4,1.2
		c-0.1,0.4-0.4,0.8-0.8,1.2c-0.4,0.2-0.7,0.3-1.2,0.2s-0.8-0.3-1.2-0.7c-1.4-1.6-3.2-2.3-5.3-2.3c-1.5,0-2.7,0.3-3.8,1
		s-2,1.6-2.6,2.8s-0.9,2.6-0.9,4.2c0,1.5,0.3,2.9,1,4.1s1.5,2.1,2.7,2.8c1.1,0.7,2.5,1,4,1c1,0,1.9-0.1,2.7-0.4
		c0.8-0.2,1.5-0.6,2.1-1.2c0.4-0.3,0.8-0.5,1.3-0.5c0.4,0,0.8,0.1,1.1,0.4c0.4,0.4,0.7,0.8,0.7,1.2s-0.1,0.8-0.5,1.2
		C235.9,35.8,233.4,36.8,230.5,36.8z"/>
	<path fill="#FFFFFF" d="M255.4,36.8c-2.2,0-4.2-0.5-6-1.5c-1.8-1-3.1-2.3-4.1-4s-1.5-3.7-1.5-5.9c0-2.2,0.5-4.2,1.4-5.9
		c0.9-1.7,2.2-3.1,3.9-4c1.7-1,3.6-1.5,5.7-1.5c2.1,0,3.9,0.5,5.5,1.4c1.5,0.9,2.7,2.2,3.6,3.9s1.2,3.6,1.2,5.7
		c0,0.5-0.2,0.9-0.5,1.2c-0.3,0.3-0.8,0.5-1.3,0.5h-16.9v-3.1h16.9l-1.7,1.2c0-1.5-0.3-2.7-0.8-3.9c-0.5-1.1-1.3-2-2.3-2.7
		s-2.2-1-3.7-1c-1.6,0-2.9,0.3-4,1c-1.1,0.7-2,1.7-2.6,2.9c-0.6,1.2-0.9,2.6-0.9,4.2c0,1.6,0.3,3,1,4.2c0.7,1.2,1.7,2.2,2.9,2.9
		c1.2,0.7,2.6,1,4.2,1c0.9,0,1.8-0.2,2.7-0.5s1.7-0.7,2.2-1.2c0.4-0.3,0.8-0.4,1.2-0.4c0.4,0,0.8,0.1,1.2,0.4
		c0.4,0.4,0.7,0.8,0.7,1.3s-0.2,0.8-0.6,1.2c-0.9,0.7-2.1,1.4-3.5,1.8C258,36.5,256.7,36.8,255.4,36.8z"/>
</g>
</svg>
