<?xml version="1.0" encoding="UTF-8"?><svg enable-background="new 0 0 512 512" version="1.1" viewBox="0 0 512 512" xml:space="preserve" xmlns="http://www.w3.org/2000/svg"><rect width="512" height="512" fill="#F0F0F0"/><polygon points="0 304 208 304 208 512 304 512 304 304 512 304 512 208 304 208 304 0 208 0 208 208 0 208" fill="#D80027"/><g fill="#0052B4"><polygon points="406.92 333.91 512 438.99 512 333.91"/><polygon points="333.91 333.91 512 512 512 461.64 384.27 333.91"/><polygon points="464.56 512 333.91 381.34 333.91 512"/></g><polygon points="333.91 333.91 512 512 512 461.64 384.27 333.91" fill="#F0F0F0"/><polygon points="333.91 333.91 512 512 512 461.64 384.27 333.91" fill="#D80027"/><g fill="#0052B4"><polygon points="80.302 333.91 0 414.22 0 333.91"/><polygon points="178.08 356.56 178.08 512 22.658 512"/></g><polygon points="127.72 333.92 0 461.64 0 512 0 512 178.08 333.92" fill="#D80027"/><g fill="#0052B4"><polygon points="105.08 178.09 0 73.007 0 178.09"/><polygon points="178.09 178.09 0 0 0 50.36 127.73 178.09"/><polygon points="47.436 0 178.09 130.66 178.09 0"/></g><polygon points="178.09 178.09 0 0 0 50.36 127.73 178.09" fill="#F0F0F0"/><polygon points="178.09 178.09 0 0 0 50.36 127.73 178.09" fill="#D80027"/><g fill="#0052B4"><polygon points="431.7 178.09 512 97.785 512 178.09"/><polygon points="333.92 155.44 333.92 3e-3 489.34 3e-3"/></g><polygon points="384.28 178.08 512 50.359 512 0 512 0 333.92 178.08" fill="#D80027"/></svg>